<?xml version="1.0" encoding="UTF-8" standalone="no"?>
<!DOCTYPE svg PUBLIC "-//W3C//DTD SVG 1.1//EN" "http://www.w3.org/Graphics/SVG/1.1/DTD/svg11.dtd">
<svg width="100%" height="100%" viewBox="0 0 444 444" version="1.1" xmlns="http://www.w3.org/2000/svg" xmlns:xlink="http://www.w3.org/1999/xlink" xml:space="preserve" xmlns:serif="http://www.serif.com/" style="fill-rule:evenodd;clip-rule:evenodd;stroke-linejoin:round;stroke-miterlimit:2;">
    <g transform="matrix(1,0,0,1,-9056,-1170)">
        <g id="icon" transform="matrix(0.216227,0,0,0.216227,9056.99,1170.55)">
            <rect x="0" y="0" width="2048" height="2048" style="fill:none;"/>
            <g id="ears" transform="matrix(5.1726,0,0,6.80548,-4272.75,-5873.08)">
                <g transform="matrix(2.19488e-17,0.358451,-0.358451,2.19488e-17,1456.81,642.906)">
                    <path d="M673.952,1130.59C664.591,1130.59 655.86,1124.39 650.722,1114.1C645.584,1103.81 644.731,1090.8 648.451,1079.5C695.196,936.141 804.27,820.82 943.612,765.636C1011.03,738.713 1083.22,781.199 1112.91,865.264C1142.17,948.289 1158.06,1037.6 1158.06,1130.59C1158.06,1130.59 795.51,1130.59 673.952,1130.59Z" style="fill:white;"/>
                </g>
                <g transform="matrix(-2.19488e-17,0.358451,0.358451,2.19488e-17,591.194,642.906)">
                    <path d="M673.471,1130.59C664.226,1130.59 655.6,1124.48 650.519,1114.31C645.438,1104.15 644.583,1091.31 648.243,1080.14C694.938,936.279 804.374,820.573 944.208,765.4C1011.27,738.725 1083.05,780.959 1112.64,864.514C1142.08,947.75 1158.06,1037.32 1158.06,1130.59C1158.06,1130.59 794.552,1130.59 673.471,1130.59Z" style="fill:white;"/>
                </g>
                <g id="heads" transform="matrix(0.725692,0,0,0.770446,172.586,181.558)">
                    <g transform="matrix(2.10446e-17,0.343684,-0.343684,2.10446e-17,1629.38,705.425)">
                        <path d="M669.052,1142.2C662.128,1142.21 655.769,1136.87 652.516,1128.33C649.264,1119.8 649.649,1109.45 653.517,1101.43C724.511,957.171 831.746,836.292 941.971,775.553C1008.45,739.202 1083.7,781.189 1113.96,871.505C1142.54,957.179 1158.06,1050.28 1158.06,1142.2C1158.06,1142.2 785.421,1142.2 669.052,1142.2Z"/>
                    </g>
                    <g transform="matrix(-2.10446e-17,0.343684,0.343684,2.10446e-17,717.113,705.425)">
                        <path d="M669.052,1142.2C662.128,1142.21 655.769,1136.87 652.516,1128.33C649.264,1119.8 649.649,1109.45 653.517,1101.43C723.927,958.359 829.983,838.284 939.249,777.065C1007.32,739.256 1084.66,782.493 1115.26,875.459C1143.01,960.037 1158.06,1051.69 1158.06,1142.2C1158.06,1142.2 785.421,1142.2 669.052,1142.2Z"/>
                    </g>
                </g>
            </g>
            <g id="head" transform="matrix(1.72436,0,0,1.72436,-194.281,-88.0223)">
                <circle cx="706.512" cy="834.044" r="378.072" style="fill:white;"/>
            </g>
            <g transform="matrix(2.64322,0,0,2.11783,361.68,-2258.36)">
                <path d="M-84.566,1676.57C-84.566,1861.66 65.481,2011.71 250.573,2011.71C435.665,2011.71 585.712,1861.66 585.712,1676.57L250.573,1676.57L-84.566,1676.57Z" style="fill:white;"/>
            </g>
            <g id="nose" transform="matrix(8.67201,0,0,8.67201,-7854.93,-8794)">
                <g transform="matrix(0.22551,0,0,0.112755,798.881,1003.32)">
                    <circle cx="997.785" cy="1507.24" r="60.232"/>
                </g>
                <g transform="matrix(0.112755,0,0,0.112755,911.386,1010.11)">
                    <circle cx="997.785" cy="1507.24" r="60.232"/>
                </g>
                <g transform="matrix(0.0797299,-0.0797299,0.122427,0.122427,754.715,1073.05)">
                    <circle cx="997.785" cy="1507.24" r="60.232"/>
                </g>
                <g transform="matrix(-0.0797299,-0.0797299,-0.122427,0.122427,1293.01,1073.05)">
                    <circle cx="997.785" cy="1507.24" r="60.232"/>
                </g>
            </g>
            <g id="eyes" transform="matrix(6.02469,0,0,4.90034,-5203.34,-4227.65)">
                <g transform="matrix(0.230669,0,-0.0287084,0.358996,960.609,923.585)">
                    <g id="rightEye">
                        <circle cx="172.003" cy="519.609" r="122.39"/>
                    </g>
                </g>
                <g transform="matrix(-0.230669,0,0.0287084,0.358996,1106.66,923.585)">
                    <g id="leftEye">
                        <circle cx="172.003" cy="519.609" r="122.39"/>
                    </g>
                </g>
            </g>
        </g>
    </g>
</svg>
